# xmcd
#
# Track frame offsets:
#	183
#	11393
#	26898
#	41290
#	51603
#	62393
#	77415
#	87008
#	98018
#	109500
#	122218
#	135083
#	169635
#	182395
#	194943
#	210388
#	223118
#	238985
#
# Disc length: 3339 seconds
#
# Revision: 1
# Processed by: cddbd v1.5.1PL2 Copyright (c) Steve Scherf et al.
# Submitted via: audiograbber 1.83.01
#
DISCID=e90d0912
DTITLE=Various Artist - A very special country collection CD1
DYEAR=1996
DGENRE=county
TTITLE0=Tammy Wynette - D.I.V.O.R.C.E.
TTITLE1=George Jones - He stopped loving her today
TTITLE2=Freddy Fender - Jambalaya (On the Bayou)
TTITLE3=Stella Parton - The danger of a stranger
TTITLE4=Hoyt Axton - Boney fingers
TTITLE5=Jeannie C Riley - Harper Valley PTA
TTITLE6=Porter Wagoner - Louisiana Saturday night
TTITLE7=The Bellamy Brothers - Let your love flow
TTITLE8=Lynn Anderson - listen to a country song
TTITLE9=Frankie Laine - Moonlight Gambler
TTITLE10=Billie Joe Spears - Dallas
TTITLE11=Boxcar Willie - Medley of Tom Williams
TTITLE12=Moe Bandy - Rodeo Romeo
TTITLE13=Lyn Paul - Cry
TTITLE14=Lee Greenwood - Fool's gold
TTITLE15=The Osmonds - Takin' country to the city
TTITLE16=Kathy Mattea - Heart of the country
TTITLE17=Patsy Cline - Just out of reach
EXTD=
EXTT0=
EXTT1=
EXTT2=
EXTT3=
EXTT4=
EXTT5=
EXTT6=
EXTT7=
EXTT8=
EXTT9=
EXTT10=
EXTT11=
EXTT12=
EXTT13=
EXTT14=
EXTT15=
EXTT16=
EXTT17=
PLAYORDER=
